<svg width="182" height="201" viewBox="0 0 182 201" fill="none" xmlns="http://www.w3.org/2000/svg">
<rect width="182" height="201" fill="#14171D"/>
<g id="Vee &#226;&#128;&#148; Cover">
<rect width="1920" height="960" transform="translate(-869.556 -155.778)" fill="#0C0E12"/>
<g id="PlayMark" filter="url(#filter0_d_0_1)">
<path id="Vector" d="M51.7244 61.1111H41.5555V71.28H51.7244V61.1111Z" fill="#6BFFA3"/>
<path id="Vector_2" d="M61.5023 61.1111H51.3334V71.28H61.5023V61.1111Z" fill="#6BFFA3"/>
<path id="Vector_3" d="M71.28 61.1111H61.1111V71.28H71.28V61.1111Z" fill="#6BFFA3"/>
<path id="Vector_4" d="M81.0578 61.1111H70.8889V71.28H81.0578V61.1111Z" fill="#6BFFA3"/>
<path id="Vector_5" d="M90.8356 61.1111H80.6667V71.28H90.8356V61.1111Z" fill="#6BFFA3"/>
<path id="Vector_6" d="M100.613 61.1111H90.4445V71.28H100.613V61.1111Z" fill="#6BFFA3"/>
<path id="Vector_7" d="M110.391 61.1111H100.222V71.28H110.391V61.1111Z" fill="#6BFFA3"/>
<path id="Vector_8" d="M120.169 61.1111H110V71.28H120.169V61.1111Z" fill="#6BFFA3"/>
<path id="Vector_9" d="M129.947 61.1111H119.778V71.28H129.947V61.1111Z" fill="#6BFFA3"/>
<path id="Vector_10" d="M139.724 61.1111H129.556V71.28H139.724V61.1111Z" fill="#6BFFA3"/>
<path id="Vector_11" d="M41.9467 70.8889H31.7778V81.0578H41.9467V70.8889Z" fill="#6BFFA3"/>
<path id="Vector_12" d="M51.7244 70.8889H41.5555V81.0578H51.7244V70.8889Z" fill="#4EE98A"/>
<path id="Vector_13" d="M61.5023 70.8889H51.3334V81.0578H61.5023V70.8889Z" fill="#4EE98A"/>
<path id="Vector_14" d="M71.28 70.8889H61.1111V81.0578H71.28V70.8889Z" fill="#4EE98A"/>
<path id="Vector_15" d="M81.0578 70.8889H70.8889V81.0578H81.0578V70.8889Z" fill="#4EE98A"/>
<path id="Vector_16" d="M90.8356 70.8889H80.6667V81.0578H90.8356V70.8889Z" fill="#4EE98A"/>
<path id="Vector_17" d="M100.613 70.8889H90.4445V81.0578H100.613V70.8889Z" fill="#4EE98A"/>
<path id="Vector_18" d="M110.391 70.8889H100.222V81.0578H110.391V70.8889Z" fill="#4EE98A"/>
<path id="Vector_19" d="M120.169 70.8889H110V81.0578H120.169V70.8889Z" fill="#4EE98A"/>
<path id="Vector_20" d="M129.947 70.8889H119.778V81.0578H129.947V70.8889Z" fill="#4EE98A"/>
<path id="Vector_21" d="M139.724 70.8889H129.556V81.0578H139.724V70.8889Z" fill="#4EE98A"/>
<path id="Vector_22" d="M149.502 70.8889H139.333V81.0578H149.502V70.8889Z" fill="#6BFFA3"/>
<path id="Vector_23" d="M32.1689 80.6667H22V90.8356H32.1689V80.6667Z" fill="#6BFFA3"/>
<path id="Vector_24" d="M41.9467 80.6667H31.7778V90.8356H41.9467V80.6667Z" fill="#4EE98A"/>
<path id="Vector_25" d="M51.7244 80.6667H41.5555V90.8356H51.7244V80.6667Z" fill="#4EE98A"/>
<path id="Vector_26" d="M61.5023 80.6667H51.3334V90.8356H61.5023V80.6667Z" fill="#4EE98A"/>
<path id="Vector_27" d="M81.0578 80.6667H70.8889V90.8356H81.0578V80.6667Z" fill="#4EE98A"/>
<path id="Vector_28" d="M90.8356 80.6667H80.6667V90.8356H90.8356V80.6667Z" fill="#4EE98A"/>
<path id="Vector_29" d="M100.613 80.6667H90.4445V90.8356H100.613V80.6667Z" fill="#4EE98A"/>
<path id="Vector_30" d="M110.391 80.6667H100.222V90.8356H110.391V80.6667Z" fill="#4EE98A"/>
<path id="Vector_31" d="M120.169 80.6667H110V90.8356H120.169V80.6667Z" fill="#4EE98A"/>
<path id="Vector_32" d="M129.947 80.6667H119.778V90.8356H129.947V80.6667Z" fill="#4EE98A"/>
<path id="Vector_33" d="M139.724 80.6667H129.556V90.8356H139.724V80.6667Z" fill="#4EE98A"/>
<path id="Vector_34" d="M149.502 80.6667H139.333V90.8356H149.502V80.6667Z" fill="#4EE98A"/>
<path id="Vector_35" d="M159.28 80.6667H149.111V90.8356H159.28V80.6667Z" fill="#6BFFA3"/>
<path id="Vector_36" d="M32.1689 90.4445H22V100.613H32.1689V90.4445Z" fill="#6BFFA3"/>
<path id="Vector_37" d="M41.9467 90.4445H31.7778V100.613H41.9467V90.4445Z" fill="#4EE98A"/>
<path id="Vector_38" d="M51.7244 90.4445H41.5555V100.613H51.7244V90.4445Z" fill="#4EE98A"/>
<path id="Vector_39" d="M61.5023 90.4445H51.3334V100.613H61.5023V90.4445Z" fill="#4EE98A"/>
<path id="Vector_40" d="M100.613 90.4445H90.4445V100.613H100.613V90.4445Z" fill="#4EE98A"/>
<path id="Vector_41" d="M110.391 90.4445H100.222V100.613H110.391V90.4445Z" fill="#4EE98A"/>
<path id="Vector_42" d="M120.169 90.4445H110V100.613H120.169V90.4445Z" fill="#4EE98A"/>
<path id="Vector_43" d="M129.947 90.4445H119.778V100.613H129.947V90.4445Z" fill="#4EE98A"/>
<path id="Vector_44" d="M139.724 90.4445H129.556V100.613H139.724V90.4445Z" fill="#4EE98A"/>
<path id="Vector_45" d="M149.502 90.4445H139.333V100.613H149.502V90.4445Z" fill="#4EE98A"/>
<path id="Vector_46" d="M159.28 90.4445H149.111V100.613H159.28V90.4445Z" fill="#4EE98A"/>
<path id="Vector_47" d="M32.1689 100.222H22V110.391H32.1689V100.222Z" fill="#6BFFA3"/>
<path id="Vector_48" d="M41.9467 100.222H31.7778V110.391H41.9467V100.222Z" fill="#4EE98A"/>
<path id="Vector_49" d="M51.7244 100.222H41.5555V110.391H51.7244V100.222Z" fill="#4EE98A"/>
<path id="Vector_50" d="M61.5023 100.222H51.3334V110.391H61.5023V100.222Z" fill="#4EE98A"/>
<path id="Vector_51" d="M120.169 100.222H110V110.391H120.169V100.222Z" fill="#4EE98A"/>
<path id="Vector_52" d="M129.947 100.222H119.778V110.391H129.947V100.222Z" fill="#4EE98A"/>
<path id="Vector_53" d="M139.724 100.222H129.556V110.391H139.724V100.222Z" fill="#4EE98A"/>
<path id="Vector_54" d="M149.502 100.222H139.333V110.391H149.502V100.222Z" fill="#4EE98A"/>
<path id="Vector_55" d="M159.28 100.222H149.111V110.391H159.28V100.222Z" fill="#4EE98A"/>
<path id="Vector_56" d="M32.1689 110H22V120.169H32.1689V110Z" fill="#6BFFA3"/>
<path id="Vector_57" d="M41.9467 110H31.7778V120.169H41.9467V110Z" fill="#4EE98A"/>
<path id="Vector_58" d="M51.7244 110H41.5555V120.169H51.7244V110Z" fill="#4EE98A"/>
<path id="Vector_59" d="M61.5023 110H51.3334V120.169H61.5023V110Z" fill="#4EE98A"/>
<path id="Vector_60" d="M139.724 110H129.556V120.169H139.724V110Z" fill="#4EE98A"/>
<path id="Vector_61" d="M149.502 110H139.333V120.169H149.502V110Z" fill="#4EE98A"/>
<path id="Vector_62" d="M159.28 110H149.111V120.169H159.28V110Z" fill="#4EE98A"/>
<path id="Vector_63" d="M32.1689 119.778H22V129.947H32.1689V119.778Z" fill="#6BFFA3"/>
<path id="Vector_64" d="M41.9467 119.778H31.7778V129.947H41.9467V119.778Z" fill="#4EE98A"/>
<path id="Vector_65" d="M51.7244 119.778H41.5555V129.947H51.7244V119.778Z" fill="#4EE98A"/>
<path id="Vector_66" d="M61.5023 119.778H51.3334V129.947H61.5023V119.778Z" fill="#4EE98A"/>
<path id="Vector_67" d="M120.169 119.778H110V129.947H120.169V119.778Z" fill="#4EE98A"/>
<path id="Vector_68" d="M129.947 119.778H119.778V129.947H129.947V119.778Z" fill="#4EE98A"/>
<path id="Vector_69" d="M139.724 119.778H129.556V129.947H139.724V119.778Z" fill="#4EE98A"/>
<path id="Vector_70" d="M149.502 119.778H139.333V129.947H149.502V119.778Z" fill="#4EE98A"/>
<path id="Vector_71" d="M159.28 119.778H149.111V129.947H159.28V119.778Z" fill="#4EE98A"/>
<path id="Vector_72" d="M32.1689 129.556H22V139.724H32.1689V129.556Z" fill="#6BFFA3"/>
<path id="Vector_73" d="M41.9467 129.556H31.7778V139.724H41.9467V129.556Z" fill="#4EE98A"/>
<path id="Vector_74" d="M51.7244 129.556H41.5555V139.724H51.7244V129.556Z" fill="#4EE98A"/>
<path id="Vector_75" d="M61.5023 129.556H51.3334V139.724H61.5023V129.556Z" fill="#4EE98A"/>
<path id="Vector_76" d="M100.613 129.556H90.4445V139.724H100.613V129.556Z" fill="#4EE98A"/>
<path id="Vector_77" d="M110.391 129.556H100.222V139.724H110.391V129.556Z" fill="#4EE98A"/>
<path id="Vector_78" d="M120.169 129.556H110V139.724H120.169V129.556Z" fill="#4EE98A"/>
<path id="Vector_79" d="M129.947 129.556H119.778V139.724H129.947V129.556Z" fill="#4EE98A"/>
<path id="Vector_80" d="M139.724 129.556H129.556V139.724H139.724V129.556Z" fill="#4EE98A"/>
<path id="Vector_81" d="M149.502 129.556H139.333V139.724H149.502V129.556Z" fill="#4EE98A"/>
<path id="Vector_82" d="M159.28 129.556H149.111V139.724H159.28V129.556Z" fill="#4EE98A"/>
<path id="Vector_83" d="M32.1689 139.333H22V149.502H32.1689V139.333Z" fill="#6BFFA3"/>
<path id="Vector_84" d="M41.9467 139.333H31.7778V149.502H41.9467V139.333Z" fill="#4EE98A"/>
<path id="Vector_85" d="M51.7244 139.333H41.5555V149.502H51.7244V139.333Z" fill="#4EE98A"/>
<path id="Vector_86" d="M61.5023 139.333H51.3334V149.502H61.5023V139.333Z" fill="#4EE98A"/>
<path id="Vector_87" d="M81.0578 139.333H70.8889V149.502H81.0578V139.333Z" fill="#4EE98A"/>
<path id="Vector_88" d="M90.8356 139.333H80.6667V149.502H90.8356V139.333Z" fill="#4EE98A"/>
<path id="Vector_89" d="M100.613 139.333H90.4445V149.502H100.613V139.333Z" fill="#4EE98A"/>
<path id="Vector_90" d="M110.391 139.333H100.222V149.502H110.391V139.333Z" fill="#4EE98A"/>
<path id="Vector_91" d="M120.169 139.333H110V149.502H120.169V139.333Z" fill="#4EE98A"/>
<path id="Vector_92" d="M129.947 139.333H119.778V149.502H129.947V139.333Z" fill="#4EE98A"/>
<path id="Vector_93" d="M139.724 139.333H129.556V149.502H139.724V139.333Z" fill="#4EE98A"/>
<path id="Vector_94" d="M149.502 139.333H139.333V149.502H149.502V139.333Z" fill="#4EE98A"/>
<path id="Vector_95" d="M159.28 139.333H149.111V149.502H159.28V139.333Z" fill="#4EE98A"/>
<path id="Vector_96" d="M32.1689 149.111H22V159.28H32.1689V149.111Z" fill="#6BFFA3"/>
<path id="Vector_97" d="M41.9467 149.111H31.7778V159.28H41.9467V149.111Z" fill="#4EE98A"/>
<path id="Vector_98" d="M51.7244 149.111H41.5555V159.28H51.7244V149.111Z" fill="#4EE98A"/>
<path id="Vector_99" d="M61.5023 149.111H51.3334V159.28H61.5023V149.111Z" fill="#4EE98A"/>
<path id="Vector_100" d="M71.28 149.111H61.1111V159.28H71.28V149.111Z" fill="#4EE98A"/>
<path id="Vector_101" d="M81.0578 149.111H70.8889V159.28H81.0578V149.111Z" fill="#4EE98A"/>
<path id="Vector_102" d="M90.8356 149.111H80.6667V159.28H90.8356V149.111Z" fill="#4EE98A"/>
<path id="Vector_103" d="M100.613 149.111H90.4445V159.28H100.613V149.111Z" fill="#4EE98A"/>
<path id="Vector_104" d="M110.391 149.111H100.222V159.28H110.391V149.111Z" fill="#4EE98A"/>
<path id="Vector_105" d="M120.169 149.111H110V159.28H120.169V149.111Z" fill="#4EE98A"/>
<path id="Vector_106" d="M129.947 149.111H119.778V159.28H129.947V149.111Z" fill="#4EE98A"/>
<path id="Vector_107" d="M139.724 149.111H129.556V159.28H139.724V149.111Z" fill="#4EE98A"/>
<path id="Vector_108" d="M149.502 149.111H139.333V159.28H149.502V149.111Z" fill="#4EE98A"/>
<path id="Vector_109" d="M159.28 149.111H149.111V159.28H159.28V149.111Z" fill="#2F9B5E"/>
<path id="Vector_110" d="M41.9467 158.889H31.7778V169.058H41.9467V158.889Z" fill="#2F9B5E"/>
<path id="Vector_111" d="M51.7244 158.889H41.5555V169.058H51.7244V158.889Z" fill="#4EE98A"/>
<path id="Vector_112" d="M61.5023 158.889H51.3334V169.058H61.5023V158.889Z" fill="#4EE98A"/>
<path id="Vector_113" d="M71.28 158.889H61.1111V169.058H71.28V158.889Z" fill="#4EE98A"/>
<path id="Vector_114" d="M81.0578 158.889H70.8889V169.058H81.0578V158.889Z" fill="#4EE98A"/>
<path id="Vector_115" d="M90.8356 158.889H80.6667V169.058H90.8356V158.889Z" fill="#4EE98A"/>
<path id="Vector_116" d="M100.613 158.889H90.4445V169.058H100.613V158.889Z" fill="#4EE98A"/>
<path id="Vector_117" d="M110.391 158.889H100.222V169.058H110.391V158.889Z" fill="#4EE98A"/>
<path id="Vector_118" d="M120.169 158.889H110V169.058H120.169V158.889Z" fill="#4EE98A"/>
<path id="Vector_119" d="M129.947 158.889H119.778V169.058H129.947V158.889Z" fill="#4EE98A"/>
<path id="Vector_120" d="M139.724 158.889H129.556V169.058H139.724V158.889Z" fill="#4EE98A"/>
<path id="Vector_121" d="M149.502 158.889H139.333V169.058H149.502V158.889Z" fill="#2F9B5E"/>
<path id="Vector_122" d="M51.7244 168.667H41.5555V178.836H51.7244V168.667Z" fill="#2F9B5E"/>
<path id="Vector_123" d="M61.5023 168.667H51.3334V178.836H61.5023V168.667Z" fill="#2F9B5E"/>
<path id="Vector_124" d="M71.28 168.667H61.1111V178.836H71.28V168.667Z" fill="#2F9B5E"/>
<path id="Vector_125" d="M81.0578 168.667H70.8889V178.836H81.0578V168.667Z" fill="#2F9B5E"/>
<path id="Vector_126" d="M90.8356 168.667H80.6667V178.836H90.8356V168.667Z" fill="#2F9B5E"/>
<path id="Vector_127" d="M100.613 168.667H90.4445V178.836H100.613V168.667Z" fill="#2F9B5E"/>
<path id="Vector_128" d="M110.391 168.667H100.222V178.836H110.391V168.667Z" fill="#2F9B5E"/>
<path id="Vector_129" d="M120.169 168.667H110V178.836H120.169V168.667Z" fill="#2F9B5E"/>
<path id="Vector_130" d="M129.947 168.667H119.778V178.836H129.947V168.667Z" fill="#2F9B5E"/>
<path id="Vector_131" d="M139.724 168.667H129.556V178.836H139.724V168.667Z" fill="#2F9B5E"/>
<path id="Vector_132" d="M51.7244 22H41.5555V32.1689H51.7244V22Z" fill="#6BFFA3"/>
<path id="Vector_133" d="M61.5023 22H51.3334V32.1689H61.5023V22Z" fill="#6BFFA3"/>
<path id="Vector_134" d="M71.28 22H61.1111V32.1689H71.28V22Z" fill="#6BFFA3"/>
<path id="Vector_135" d="M41.9467 31.7778H31.7778V41.9467H41.9467V31.7778Z" fill="#4EE98A"/>
<path id="Vector_136" d="M51.7244 31.7778H41.5555V41.9467H51.7244V31.7778Z" fill="#4EE98A"/>
<path id="Vector_137" d="M61.5023 31.7778H51.3334V41.9467H61.5023V31.7778Z" fill="#4EE98A"/>
<path id="Vector_138" d="M71.28 31.7778H61.1111V41.9467H71.28V31.7778Z" fill="#4EE98A"/>
<path id="Vector_139" d="M81.0578 31.7778H70.8889V41.9467H81.0578V31.7778Z" fill="#4EE98A"/>
<path id="Vector_140" d="M41.9467 41.5556H31.7778V51.7244H41.9467V41.5556Z" fill="#4EE98A"/>
<path id="Vector_141" d="M51.7244 41.5556H41.5555V51.7244H51.7244V41.5556Z" fill="#4EE98A"/>
<path id="Vector_142" d="M61.5023 41.5556H51.3334V51.7244H61.5023V41.5556Z" fill="#4EE98A"/>
<path id="Vector_143" d="M71.28 41.5556H61.1111V51.7244H71.28V41.5556Z" fill="#4EE98A"/>
<path id="Vector_144" d="M81.0578 41.5556H70.8889V51.7244H81.0578V41.5556Z" fill="#4EE98A"/>
<path id="Vector_145" d="M41.9467 51.3333H31.7778V61.5022H41.9467V51.3333Z" fill="#4EE98A"/>
<path id="Vector_146" d="M51.7244 51.3333H41.5555V61.5022H51.7244V51.3333Z" fill="#4EE98A"/>
<path id="Vector_147" d="M61.5023 51.3333H51.3334V61.5022H61.5023V51.3333Z" fill="#4EE98A"/>
<path id="Vector_148" d="M71.28 51.3333H61.1111V61.5022H71.28V51.3333Z" fill="#4EE98A"/>
<path id="Vector_149" d="M81.0578 51.3333H70.8889V61.5022H81.0578V51.3333Z" fill="#4EE98A"/>
<path id="Vector_150" d="M120.169 22H110V32.1689H120.169V22Z" fill="#6BFFA3"/>
<path id="Vector_151" d="M129.947 22H119.778V32.1689H129.947V22Z" fill="#6BFFA3"/>
<path id="Vector_152" d="M139.724 22H129.556V32.1689H139.724V22Z" fill="#6BFFA3"/>
<path id="Vector_153" d="M110.391 31.7778H100.222V41.9467H110.391V31.7778Z" fill="#4EE98A"/>
<path id="Vector_154" d="M120.169 31.7778H110V41.9467H120.169V31.7778Z" fill="#4EE98A"/>
<path id="Vector_155" d="M129.947 31.7778H119.778V41.9467H129.947V31.7778Z" fill="#4EE98A"/>
<path id="Vector_156" d="M139.724 31.7778H129.556V41.9467H139.724V31.7778Z" fill="#4EE98A"/>
<path id="Vector_157" d="M149.502 31.7778H139.333V41.9467H149.502V31.7778Z" fill="#4EE98A"/>
<path id="Vector_158" d="M110.391 41.5556H100.222V51.7244H110.391V41.5556Z" fill="#4EE98A"/>
<path id="Vector_159" d="M120.169 41.5556H110V51.7244H120.169V41.5556Z" fill="#4EE98A"/>
<path id="Vector_160" d="M129.947 41.5556H119.778V51.7244H129.947V41.5556Z" fill="#4EE98A"/>
<path id="Vector_161" d="M139.724 41.5556H129.556V51.7244H139.724V41.5556Z" fill="#4EE98A"/>
<path id="Vector_162" d="M149.502 41.5556H139.333V51.7244H149.502V41.5556Z" fill="#4EE98A"/>
<path id="Vector_163" d="M110.391 51.3333H100.222V61.5022H110.391V51.3333Z" fill="#4EE98A"/>
<path id="Vector_164" d="M120.169 51.3333H110V61.5022H120.169V51.3333Z" fill="#4EE98A"/>
<path id="Vector_165" d="M129.947 51.3333H119.778V61.5022H129.947V51.3333Z" fill="#4EE98A"/>
<path id="Vector_166" d="M139.724 51.3333H129.556V61.5022H139.724V51.3333Z" fill="#4EE98A"/>
<path id="Vector_167" d="M149.502 51.3333H139.333V61.5022H149.502V51.3333Z" fill="#4EE98A"/>
<path id="Vector_168" d="M51.7244 31.7778H41.5555V41.9467H51.7244V31.7778Z" fill="#EAFFF3"/>
<path id="Vector_169" d="M61.5023 31.7778H51.3334V41.9467H61.5023V31.7778Z" fill="#07080A"/>
<path id="Vector_170" d="M51.7244 41.5556H41.5555V51.7244H51.7244V41.5556Z" fill="#EAFFF3"/>
<path id="Vector_171" d="M61.5023 41.5556H51.3334V51.7244H61.5023V41.5556Z" fill="#07080A"/>
<path id="Vector_172" d="M120.169 31.7778H110V41.9467H120.169V31.7778Z" fill="#EAFFF3"/>
<path id="Vector_173" d="M129.947 31.7778H119.778V41.9467H129.947V31.7778Z" fill="#07080A"/>
<path id="Vector_174" d="M120.169 41.5556H110V51.7244H120.169V41.5556Z" fill="#EAFFF3"/>
<path id="Vector_175" d="M129.947 41.5556H119.778V51.7244H129.947V41.5556Z" fill="#07080A"/>
</g>
</g>
<defs>
<filter id="filter0_d_0_1" x="-19.5555" y="-9.77777" width="220" height="220" filterUnits="userSpaceOnUse" color-interpolation-filters="sRGB">
<feFlood flood-opacity="0" result="BackgroundImageFix"/>
<feColorMatrix in="SourceAlpha" type="matrix" values="0 0 0 0 0 0 0 0 0 0 0 0 0 0 0 0 0 0 127 0" result="hardAlpha"/>
<feOffset/>
<feGaussianBlur stdDeviation="11"/>
<feColorMatrix type="matrix" values="0 0 0 0 0.305882 0 0 0 0 0.913725 0 0 0 0 0.541176 0 0 0 0.45 0"/>
<feBlend mode="normal" in2="BackgroundImageFix" result="effect1_dropShadow_0_1"/>
<feBlend mode="normal" in="SourceGraphic" in2="effect1_dropShadow_0_1" result="shape"/>
</filter>
</defs>
</svg>
